PathFileType	4	(X/Y/Z)	C:/Users/opensim2020/Desktop/walking_exp_matlab/subject02_walking16_run.trc																																																																																																																																																							
DataRate	CameraRate	NumFrames	NumMarkers	Units	OrigDataRate	OrigDataStartFrame	OrigNumFrames																																																																																																																																																			
100	100	6	51	mm	100	215	124																																																																																																																																																			
Frame#	Time	RTOE			LSHO			LELB			RELB			RFIN			LTHI			LKNE			RWRB			RUPA			LTIB			RASI			LANK			LTOE			RSHO			RWRA			RFRM			LASI			STRN			LFHD			RTHI			RFHD			LWRB			LFIN			LUPA			RKNE			RBHD			LFRM			C7			LWRA			RTIB			CLAV			LHEE			RANK			LBHD			RBAK			RHEE			T10			LPSI			RPSI			*39			*40			*41			*42			*43			*44			*45			*46			*47			*48			*49			*50		
		X1	Y1	Z1	X2	Y2	Z2	X3	Y3	Z3	X4	Y4	Z4	X5	Y5	Z5	X6	Y6	Z6	X7	Y7	Z7	X8	Y8	Z8	X9	Y9	Z9	X10	Y10	Z10	X11	Y11	Z11	X12	Y12	Z12	X13	Y13	Z13	X14	Y14	Z14	X15	Y15	Z15	X16	Y16	Z16	X17	Y17	Z17	X18	Y18	Z18	X19	Y19	Z19	X20	Y20	Z20	X21	Y21	Z21	X22	Y22	Z22	X23	Y23	Z23	X24	Y24	Z24	X25	Y25	Z25	X26	Y26	Z26	X27	Y27	Z27	X28	Y28	Z28	X29	Y29	Z29	X30	Y30	Z30	X31	Y31	Z31	X32	Y32	Z32	X33	Y33	Z33	X34	Y34	Z34	X35	Y35	Z35	X36	Y36	Z36	X37	Y37	Z37	X38	Y38	Z38	X39	Y39	Z39	X40	Y40	Z40	X41	Y41	Z41	X42	Y42	Z42	X43	Y43	Z43	X44	Y44	Z44	X45	Y45	Z45	X46	Y46	Z46	X47	Y47	Z47	X48	Y48	Z48	X49	Y49	Z49	X50	Y50	Z50	X51	Y51	Z51
																																																																																																																																																										
63	0.62	254.82706	37.33886	125.82188	199.03905	1460.91162	-103.78574	295.32129	1228.62476	-331.01657	-67.60835	1166.48474	331.10736	180.03224	1018.93585	335.29141	139.61957	608.72229	-129.16989	96.30515	436.82346	-102.83502	119.34225	999.08337	322.85614	-14.63608	1295.53406	296.40823	-80.57592	420.103	-84.8679	194.01369	945.72345	173.51772	-281.85721	354.20447	-42.50768	-318.08789	202.31833	-66.18079	115.76444	1436.66931	233.71263	140.48788	1046.83496	296.01364	25.37584	1083.91284	332.71597	212.59741	934.15613	-74.92263	250.78322	1219.61719	64.19939	233.23274	1695.72766	-9.2845	176.64894	635.1507	229.48161	236.66519	1686.92224	135.14014	393.50436	998.93964	-245.45613	402.22537	943.87067	-206.12337	243.50589	1342.83093	-257.20554	243.94298	445.26068	174.54518	109.02008	1585.87781	131.66733	351.53204	1103.10608	-298.91003	88.97682	1477.97253	41.03363	353.63614	1004.96381	-203.27702	181.03477	272.54489	173.1828	223.86566	1401.61609	62.74191	-298.85938	374.68329	17.6629	112.59406	92.41921	121.74888	117.39186	1598.7865	-11.03213	2.09121	1316.0885	71.93967	62.37255	41.08701	65.55716	5.89629	1219.04749	19.66017	10.88148	998.1142	-25.93492	-9.4025	1001.58386	89.77817	NaN	NaN	NaN	2845.94629	1034.27148	-3356.89893	NaN	NaN	NaN	NaN	NaN	NaN	NaN	NaN	NaN	NaN	NaN	NaN	NaN	NaN	NaN	NaN	NaN	NaN	NaN	NaN	NaN	NaN	NaN	NaN	121.58772	1747.35205	78.99778	NaN	NaN	NaN
64	0.63	254.5919	37.25517	125.46127	238.16115	1457.16809	-103.27773	317.3772	1229.23083	-345.03723	-9.54772	1150.23523	335.54648	248.35376	1021.43445	328.35284	194.55807	608.34515	-128.21655	160.50728	436.41757	-102.20433	189.35474	996.90753	317.45901	36.35403	1283.77771	302.61508	-12.76107	416.49921	-84.57594	229.01807	938.49225	177.6674	-213.47523	350.73401	-43.28881	-242.50366	197.46008	-66.64731	155.38408	1432.48486	237.30989	205.6019	1046.79407	290.65567	90.21964	1073.17603	332.12701	248.70517	925.5022	-71.62512	290.49075	1215.7334	64.60893	269.70752	1694.59851	-8.74733	203.32097	636.12793	230.21056	275.14597	1686.75732	135.89034	414.56732	992.62396	-278.98538	423.62439	934.69568	-244.16336	273.59183	1340.9303	-262.21902	272.28671	442.72375	170.61288	148.39496	1584.4259	134.55956	372.69345	1101.30762	-322.31531	126.43473	1475.15662	43.45833	377.03922	996.39075	-233.97681	190.94028	270.41159	170.88812	264.0426	1397.44141	63.75866	-233.94946	371.23297	15.67643	112.44746	92.1646	121.50488	154.62778	1596.44189	-8.37062	39.42477	1314.79663	76.60242	61.86916	41.75673	65.857	44.51128	1218.17078	25.27197	47.21708	987.27307	-23.15302	25.40643	990.91754	91.78046	NaN	NaN	NaN	2846.02539	1034.4248	-3356.70361	NaN	NaN	NaN	NaN	NaN	NaN	NaN	NaN	NaN	NaN	NaN	NaN	NaN	NaN	NaN	NaN	NaN	NaN	NaN	NaN	NaN	NaN	NaN	NaN	158.95462	1745.73901	80.97522	NaN	NaN	NaN
65	0.64	254.15147	37.24806	125.28958	277.2438	1455.04993	-104.04227	336.12167	1236.34302	-359.9707	50.92673	1138.09473	340.10791	318.45166	1030.31323	319.05048	248.31093	610.4978	-127.26261	226.24823	439.24667	-100.60461	261.35321	1000.89874	310.97156	85.62967	1274.96399	307.78314	55.54696	414.5235	-83.93575	266.20111	932.18073	181.7438	-144.17706	344.70755	-44.56113	-163.73589	189.57735	-66.75061	195.02124	1431.22546	238.5345	272.09286	1052.10156	283.51508	156.97794	1067.57422	330.60684	285.56546	916.65796	-68.87782	330.25238	1215.47754	65.13503	306.39529	1694.08728	-8.80192	232.32219	635.51489	231.59547	313.01511	1686.93555	134.99934	432.07364	992.98401	-308.79031	441.98083	933.71381	-276.44791	299.65121	1343.09912	-269.48022	286.28561	434.63348	170.49969	187.24547	1584.25134	136.23927	391.6091	1104.91064	-343.19479	166.46188	1475.98059	44.82503	398.85812	996.45447	-260.29129	196.91107	263.98178	169.34843	303.37622	1396.05847	64.0695	-168.20882	364.52417	13.60001	113.7941	90.65115	120.68845	191.94705	1595.49927	-6.75941	77.44141	1315.32349	82.95271	62.05247	42.36632	64.17575	83.06998	1217.76086	30.05443	80.9644	988.20074	-16.54828	62.48185	992.87238	95.42587	NaN	NaN	NaN	2846.26685	1034.38135	-3356.88086	NaN	NaN	NaN	NaN	NaN	NaN	NaN	NaN	NaN	NaN	NaN	NaN	NaN	NaN	NaN	NaN	NaN	NaN	NaN	NaN	NaN	NaN	NaN	NaN	195.84245	1745.34558	81.55094	NaN	NaN	NaN
66	0.65	253.63907	37.20673	125.2994	315.25534	1455.19922	-106.18874	353.05142	1249.69385	-372.7681	113.24609	1129.70154	344.84476	388.38303	1045.93823	307.32837	300.91925	614.18011	-126.40624	292.27136	443.60114	-98.51878	333.73886	1011.836	303.86819	134.32608	1269.38977	310.69858	123.95264	414.70944	-82.5968	300.73099	925.20764	187.65712	-74.23347	335.30228	-46.55523	-81.60308	179.34192	-66.99975	235.6418	1432.23987	239.51848	338.00595	1063.39392	275.70731	225.19095	1068.78064	329.16626	324.81186	909.72595	-67.01043	369.52939	1216.19434	66.34328	343.74469	1694.40698	-9.35348	262.06247	634.48969	233.01675	351.58374	1688.24646	135.18327	447.12738	999.1134	-333.67114	458.58185	939.25848	-302.34573	320.71576	1350.53662	-275.78607	294.72534	428.25397	173.13713	226.09013	1584.70972	136.90907	408.65555	1114.48474	-361.53308	206.79095	1477.93237	46.51817	420.64258	1003.5661	-281.24805	202.64186	259.4267	167.64919	342.59912	1396.23206	63.41967	-102.06889	354.11639	10.95717	114.33913	90.64722	119.76002	229.83572	1595.34888	-6.0412	116.80033	1317.52576	88.51448	61.93102	43.71963	62.18213	121.76824	1218.09473	33.65623	115.4814	992.37732	-12.23925	100.7869	999.31018	98.58916	NaN	NaN	NaN	2846.0874	1034.36047	-3356.69409	NaN	NaN	NaN	NaN	NaN	NaN	NaN	NaN	NaN	NaN	NaN	NaN	NaN	NaN	NaN	NaN	NaN	NaN	NaN	NaN	NaN	NaN	NaN	NaN	233.3427	1745.54956	81.04406	NaN	NaN	NaN
67	0.66	253.37033	37.02103	125.38652	350.78394	1458.19202	-108.01127	370.60486	1265.94238	-381.78738	176.99303	1125.34839	349.47159	457.02972	1068.23828	294.43723	352.43973	619.48956	-125.45194	357.34421	449.46289	-96.1035	404.70251	1029.33899	295.97906	183.6749	1267.57617	311.42419	191.66473	416.17603	-80.42405	337.15048	919.31384	190.89592	-3.57833	322.26395	-48.10974	2.46426	167.09659	-67.34492	277.45389	1435.18762	240.3894	401.8425	1080.02295	266.27661	292.63885	1075.77454	327.02686	363.36475	907.92242	-69.6423	409.10049	1218.20313	67.45641	381.69904	1695.99365	-10.30117	292.4119	631.88452	232.4631	389.82483	1690.14087	133.76831	461.16629	1009.60596	-352.81076	474.58337	949.47009	-321.84473	341.27725	1360.97229	-278.71078	303.07733	422.76096	175.01765	265.10397	1585.82886	136.50085	423.61792	1128.3894	-377.04294	246.24045	1479.64758	48.07597	442.46402	1015.86713	-297.55774	207.86736	256.09695	167.84747	381.88913	1398.04541	61.97959	-35.59114	340.01599	8.09985	114.67743	92.73682	119.88055	268.39597	1596.02283	-6.46602	156.99294	1319.88721	92.23726	61.55264	47.82817	61.96888	160.53517	1219.80029	36.53123	152.04488	995.18585	-7.83139	139.77451	1003.82135	101.52049	NaN	NaN	NaN	2846.01538	1034.47424	-3356.81567	NaN	NaN	NaN	NaN	NaN	NaN	NaN	NaN	NaN	NaN	NaN	NaN	NaN	NaN	NaN	NaN	NaN	NaN	NaN	NaN	NaN	NaN	NaN	NaN	271.23749	1746.2041	80.02233	NaN	NaN	NaN
68	0.67	252.92177	36.77312	125.10801	383.47968	1463.86218	-109.03949	388.54849	1282.14746	-389.32507	241.55949	1125.91174	353.9444	521.77655	1094.99829	280.12906	403.56009	627.08875	-124.99195	421.03326	457.81183	-92.8475	473.00354	1051.91589	287.46585	234.82283	1269.44446	313.22095	258.49396	416.96033	-77.91011	374.85397	915.65393	192.14455	67.5771	306.94461	-49.72961	89.34614	152.91057	-66.73776	320.24078	1440.46704	240.30859	463.45996	1100.88013	256.62189	359.04605	1087.40308	324.71457	401.13562	913.198	-71.73861	449.1684	1222.08154	67.59347	420.09406	1699.54846	-11.63099	318.96008	626.56036	231.75504	428.01443	1693.44458	132.32486	475.35025	1023.30151	-366.55228	491.27716	962.57446	-335.42026	364.03055	1373.08984	-280.96469	313.12259	417.93338	175.98396	304.27371	1588.12988	134.97546	438.26642	1143.48804	-389.61526	284.19461	1481.57568	49.03643	464.759	1031.328	-309.44666	214.25026	255.53589	167.33974	421.21939	1401.73157	59.71848	32.28759	322.55212	5.51851	115.97448	95.79091	119.29171	307.50668	1598.65564	-8.04254	198.07407	1321.77893	95.31344	61.82323	53.56387	60.97705	200.01024	1222.33069	38.99098	191.22903	997.65436	-3.62799	179.35445	1007.18689	104.19648	NaN	NaN	NaN	2845.91431	1034.479	-3357.22119	NaN	NaN	NaN	NaN	NaN	NaN	NaN	NaN	NaN	NaN	NaN	NaN	NaN	NaN	NaN	NaN	NaN	NaN	NaN	NaN	NaN	NaN	NaN	NaN	309.39563	1748.77722	78.83417	NaN	NaN	NaN
